# xmcd
#
# Track frame offsets: 
#        150
#        15086
#        33646
#        52454
#        63897
#        79521
#        101301
#        126680
#        140766
#        163779
#        180265
#        195964
#
# Disc length: 2860 seconds
#
# Revision: 0
# Processed by: cddbd v1.5.2PL0 Copyright (c) Steve Scherf et al.
# Submitted via: ExactAudioCopyFreeDBPlugin 1.0
#
DISCID=9b0b2a0c
DTITLE=Working Class - Restless
DYEAR=2012
DGENRE=Blues
TTITLE0=Walk Alone
TTITLE1=Over You
TTITLE2=Let's Stay Together
TTITLE3=Light of Day
TTITLE4=Restless
TTITLE5=Lonesome
TTITLE6=Ain't No Sunshine
TTITLE7=Old Fashioned Jeans
TTITLE8=Make A Plan
TTITLE9=I Got You
TTITLE10=Taxi Driver
TTITLE11=Home Again
EXTD=
EXTT0=
EXTT1=
EXTT2=
EXTT3=
EXTT4=
EXTT5=
EXTT6=
EXTT7=
EXTT8=
EXTT9=
EXTT10=
EXTT11=
PLAYORDER=
